<?xml version="1.0" encoding="UTF-8"?>
<svg width="42px" height="28px" viewBox="0 0 42 34" version="1.1" xmlns="http://www.w3.org/2000/svg" xmlns:xlink="http://www.w3.org/1999/xlink">
  <g id="calendar" stroke="none" stroke-width="1" fill="none" fill-rule="evenodd">
    <path d="M10.8461538,11 L31.1538462,11 C32.1734488,11 33,11.8028528 33,12.7932219 L33,29.2067781 C33,30.1971472 32.1734488,31 31.1538462,31 L10.8461538,31 C9.82655123,31 9,30.1971472 9,29.2067781 L9,12.7932219 C9,11.8028528 9.82655123,11 10.8461538,11 Z M11,14.75 L11,15.25 L31,15.25 L31,14.75 L11,14.75 Z M12,19 L12,22 L15,22 L15,19 L12,19 Z M19.5,19 L19.5,22 L22.5,22 L22.5,19 L19.5,19 Z M27,19 L27,22 L30,22 L30,19 L27,19 Z M12,25 L12,28 L15,28 L15,25 L12,25 Z M19.5,25 L19.5,28 L22.5,28 L22.5,25 L19.5,25 Z M27,25 L27,28 L30,28 L30,25 L27,25 Z" fill="#fff" fill-rule="nonzero"></path>
  </g>
</svg>
