<?xml version="1.0" encoding="UTF-8"?>
<svg width="42px" height="42px" viewBox="0 0 42 42" version="1.1" xmlns="http://www.w3.org/2000/svg" xmlns:xlink="http://www.w3.org/1999/xlink">
  <g id="drop" stroke="none" stroke-width="1" fill="none" fill-rule="evenodd">
    <path d="M21.1245283,8.4 C20.7597358,8.4 20.4641509,8.70543774 20.4641509,9.08238994 C20.4641509,10.7422352 19.0158113,12.8251623 17.4824151,15.0301006 C15.4751321,17.917156 13.2,21.1890792 13.2,24.7773585 C13.2,30.4340981 17.1799623,32.9660377 21.1245283,32.9660377 C25.0690943,32.9660377 29.0490566,30.4340981 29.0490566,24.7773585 C29.0490566,21.1890792 26.7739245,17.917156 24.7666415,15.0301006 C23.2332453,12.8251623 21.7849057,10.7422352 21.7849057,9.08238994 C21.7849057,8.70543774 21.4893208,8.4 21.1245283,8.4 Z M21.1245283,30.236478 C18.570717,30.236478 15.8415094,28.8023673 15.8415094,24.7773585 C15.8415094,24.4004063 16.1370943,24.0949686 16.5018868,24.0949686 C16.8666792,24.0949686 17.1622642,24.4004063 17.1622642,24.7773585 C17.1622642,28.4726365 19.9332075,28.8716981 21.1245283,28.8716981 C21.4893208,28.8716981 21.7849057,29.1771358 21.7849057,29.5540881 C21.7849057,29.9310403 21.4893208,30.236478 21.1245283,30.236478 Z" fill="#F0F0F0" fill-rule="nonzero"></path>
  </g>
</svg>
