<?xml version="1.0" encoding="UTF-8"?>
<svg width="92px" height="92px" viewBox="0 0 92 92" version="1.1" xmlns="http://www.w3.org/2000/svg" xmlns:xlink="http://www.w3.org/1999/xlink">
    <!-- Generator: Sketch 52.6 (67491) - http://www.bohemiancoding.com/sketch -->
    <title>drop-lg</title>
    <desc>Created with Sketch.</desc>
    <g id="Page-1" stroke="none" stroke-width="1" fill="none" fill-rule="evenodd">
        <g id="drop-lg" transform="translate(1.000000, 1.000000)">
            <circle id="Oval" stroke="#578AD6" stroke-width="2" fill="#578AD6" cx="45" cy="45" r="45"></circle>
            <path d="M45,22 C44.3094999,22 43.7499999,22.5843667 43.7499999,23.3055556 C43.7499999,26.4811889 41.0085,30.4662667 38.106,34.6847777 C34.3065,40.2083223 30,46.4681999 30,53.3333334 C30,64.1558667 37.5335001,69 45,69 C52.4664999,69 60,64.1558667 60,53.3333334 C60,46.4681999 55.6935,40.2083223 51.894,34.6847777 C48.9915,30.4662667 46.2500001,26.4811889 46.2500001,23.3055556 C46.2500001,22.5843667 45.6905001,22 45,22 Z M42.9999999,64 C39.1328,64 35,61.8984 35,56 C35,55.4475999 35.4476,55 36.0000001,55 C36.5524,55 37.0000001,55.4475999 37.0000001,56 C37.0000001,61.4152 41.1959999,62 42.9999999,62 C43.5524,62 44,62.4475999 44,63 C44,63.5524001 43.5524,64 42.9999999,64 Z" id="Shape" fill="#FAF5E7" fill-rule="nonzero"></path>
        </g>
    </g>
</svg>