<?xml version="1.0" encoding="UTF-8"?>
<svg width="42px" height="28px" viewBox="0 0 42 34" version="1.1" xmlns="http://www.w3.org/2000/svg" xmlns:xlink="http://www.w3.org/1999/xlink">
  <g id="faucet" stroke="none" stroke-width="1" fill="none" fill-rule="evenodd">
    <path d="M27.5827024,12.9839116 C26.9706292,12.9839116 26.4041955,12.6830376 26.0578394,12.1803945 C25.9948401,12.0845747 25.8828413,12.0265354 25.7674826,12.0265354 L23.4552683,12.0265354 C23.3259097,12.0265354 23.206911,12.0982633 23.1475517,12.2110568 C22.941194,12.590503 22.6334774,12.8984951 22.2627615,13.1035494 C22.1544027,13.1651478 22.0844035,13.0041706 22.0844035,13.1273674 L22.0844035,16.6267048 L20.2274641,16.6267048 L20.2274641,13.1273674 C20.2274641,13.0041706 20.1611049,13.1651478 20.0491061,13.1035494 C19.6750303,12.8984951 19.3706737,12.5872178 19.1713159,12.2110568 C19.1119565,12.0982633 18.9893179,12.0265354 18.8599593,12.0265354 L16.4550661,12.0265354 C16.3360674,12.0265354 16.2277086,12.0845747 16.1613493,12.1803945 C15.825633,12.6830376 15.2589193,12.9839116 14.6471261,12.9839116 C13.6399773,12.9839116 12.8215464,12.1836798 12.8215464,11.1989265 C12.8215464,10.2174584 13.6399773,9.41722658 14.6471261,9.41722658 C15.2625593,9.41722658 15.829273,9.71810061 16.1613493,10.2207437 C16.2277086,10.3165634 16.3363474,10.3746028 16.4550661,10.3746028 L18.8599593,10.3746028 C18.9893179,10.3746028 19.1116765,10.3028749 19.1713159,10.1900813 C19.5593916,9.45829219 20.3218231,9 21.1578938,9 C21.9903246,9 22.7527561,9.45829219 23.1444717,10.1933666 C23.207471,10.3061601 23.3264697,10.3746028 23.4558283,10.3746028 L25.7680426,10.3746028 C25.8870413,10.3746028 25.9954001,10.3165634 26.0583994,10.2207437 C26.4011155,9.71810061 26.9711892,9.41722658 27.5832624,9.41722658 C28.5870513,9.41722658 29.4054822,10.2174584 29.4054822,11.1989265 C29.4049222,12.1836798 28.5864913,12.9839116 27.5827024,12.9839116 Z M19.787869,17.0899249 L22.6130376,17.0899249 C22.7821558,17.0899249 22.9185142,17.2262627 22.9185142,17.3913465 L22.9185142,18.5625376 C22.3758803,18.3684342 21.7979667,18.2638538 21.2018533,18.2638538 C20.6057399,18.2638538 20.0247464,18.3681604 19.4823924,18.5625376 L19.4823924,17.3913465 C19.4823924,17.2262627 19.6187509,17.0899249 19.787869,17.0899249 Z M30.4815102,26.0819243 L30.4815102,25.6991929 L30.4815102,20.5627065 L30.4815102,20.1772374 C30.4815102,19.6989599 30.8788258,19.3104792 31.3679804,19.3104792 L33.2,19.3104792 L33.2,26.9516939 L31.3677004,26.9516939 C30.8785458,26.9514202 30.4815102,26.5632133 30.4815102,26.0819243 Z M8.45695492,30.5487675 L8.68515239,30.5487675 L13.941534,30.5487675 L14.1697314,30.5487675 C14.4217286,30.5487675 14.6264064,30.7488939 14.6264064,30.9952875 L14.6264064,31.7374799 C14.6264064,31.9838736 14.4217286,32.184 14.1697314,32.184 L8.45667493,32.184 C8.20467773,32.184 8,31.9838736 8,31.7374799 L8,30.9952875 C8.00028,30.7488939 8.20495772,30.5487675 8.45695492,30.5487675 Z M13.6450173,28.8182627 L13.6450173,29.9691948 L8.98166909,29.9691948 L8.98166909,28.8182627 L13.6450173,28.8182627 Z M24.833693,25.5368468 C24.0124621,26.7137872 22.6575571,27.4181992 21.2018533,27.4181992 C19.7492295,27.4181992 18.3912445,26.7137872 17.5730936,25.5368468 C17.5168143,25.4585484 17.4249753,25.4092697 17.3269764,25.4092697 L15.7497539,25.4092697 C14.5874868,25.4092697 13.6447373,26.3340672 13.6447373,27.467478 L13.6447373,28.2384163 L8.9813891,28.2384163 L8.9813891,25.6991929 C8.9813891,23.026643 11.2079244,20.8526297 13.941254,20.8526297 L17.3272564,20.8526297 C17.4249753,20.8526297 17.5170943,20.803351 17.5733736,20.7250526 C18.3915245,19.5453745 19.7495094,18.8437002 21.2021333,18.8437002 C22.6578371,18.8437002 24.0127421,19.5451008 24.833973,20.7250526 C24.8874524,20.803351 24.9792913,20.8526297 25.0770103,20.8526297 L29.8884768,20.8526297 L29.8884768,25.4095434 L25.0767303,25.4095434 C24.9790113,25.4092697 24.8871724,25.4585484 24.833693,25.5368468 Z" id="faucet-copy-2" fill="#fff"></path>
  </g>
</svg>
