<?xml version="1.0" encoding="UTF-8"?>
<svg width="42px" height="28px" viewBox="0 0 42 34" version="1.1" xmlns="http://www.w3.org/2000/svg" xmlns:xlink="http://www.w3.org/1999/xlink">
  <g id="info" stroke="none" stroke-width="1" fill="none" fill-rule="evenodd">
    <path d="M20.9375,10 C21.9127653,10 22.6647109,10.2050761 23.1933594,10.6152344 C23.7220079,11.0253927 23.9863281,11.6269492 23.9863281,12.4199219 C23.9863281,13.20378 23.7220079,13.8007792 23.1933594,14.2109375 C22.6647109,14.6210958 21.9127653,14.8261719 20.9375,14.8261719 C19.9440054,14.8261719 19.1875026,14.6233744 18.6679688,14.2177734 C18.1484349,13.8121725 17.8886719,13.2128946 17.8886719,12.4199219 C17.8886719,11.6269492 18.1484349,11.0253927 18.6679688,10.6152344 C19.1875026,10.2050761 19.9440054,10 20.9375,10 Z M23.6035156,29.3046875 C23.6035156,29.8242213 23.6536453,30.2298162 23.7539063,30.5214844 C23.8541672,30.8131525 24.018228,31.0182286 24.2460938,31.1367187 C24.4739595,31.2552089 24.7838522,31.3144531 25.1757813,31.3144531 L25.1757813,31.9023437 C23.1705629,31.8294267 21.8444043,31.7929687 21.1972656,31.7929687 C20.550127,31.7929687 19.1510524,31.8294267 17,31.9023437 L17,31.3144531 C17.391929,31.3144531 17.7018218,31.2552089 17.9296875,31.1367187 C18.1575532,31.0182286 18.3216141,30.8131525 18.421875,30.5214844 C18.5221359,30.2298162 18.5722656,29.8242213 18.5722656,29.3046875 L18.5722656,20.4179687 C18.5722656,19.552079 18.4537772,18.9254577 18.2167969,18.5380859 C17.9798165,18.1507142 17.5742216,17.9570312 17,17.9570312 L17,17.3691406 C17.5924509,17.4238284 18.1712211,17.4511719 18.7363281,17.4511719 C20.6777441,17.4511719 22.3001237,17.323569 23.6035156,17.0683594 L23.6035156,29.3046875 Z" id="i" fill="#fff"></path>
  </g>
</svg>
