<?xml version="1.0" encoding="UTF-8"?>
<svg width="113px" height="91px" viewBox="0 0 113 91" version="1.1" xmlns="http://www.w3.org/2000/svg" xmlns:xlink="http://www.w3.org/1999/xlink">
    <!-- Generator: Sketch 52.6 (67491) - http://www.bohemiancoding.com/sketch -->
    <title>logo</title>
    <desc>Created with Sketch.</desc>
    <g id="Page-1" stroke="none" stroke-width="1" fill="none" fill-rule="evenodd">
        <g id="splash-v1.2" transform="translate(-141.000000, -71.000000)">
            <g id="Group-2" transform="translate(37.000000, 72.000000)">
                <g id="Group-3" transform="translate(29.000000, 0.000000)">
                    <g id="logo" transform="translate(76.000000, 0.000000)">
                        <path d="M56.5189615,89 C55.9540626,89 55.4873385,88.5294541 55.4700135,87.932879 C55.4369386,86.7799041 55.3461137,82.9406902 55.5818383,81.9522687 C55.8900127,80.6606065 57.0161356,80.1735503 57.838809,79.8174764 C57.9858088,79.7536363 58.1338585,79.6903465 58.2756082,79.6226539 C60.4564541,78.5786475 64.2894719,76.1961995 65.4491947,71.9788978 C66.933892,66.5794529 64.3876467,61.3148427 63.2237239,59.3022273 C62.115976,57.3859224 60.515779,55.071167 58.9680819,52.8323593 C57.6802593,50.9688876 56.4580616,49.2011762 55.4757885,47.6156292 C54.5076903,49.1775113 53.4456173,50.6843587 52.4155692,52.1466281 C51.1660716,53.9198431 49.874049,55.753596 48.7773261,57.6506388 C47.6134033,59.6632543 45.067158,64.9289651 46.5518552,70.3273094 C47.8743278,75.1367834 51.1912715,76.6447315 52.1761697,76.9914495 C53.3211925,77.3954035 54.0834911,77.3189054 54.3606906,77.2165411 C54.3879905,75.6799749 54.3087157,65.2057892 54.2451908,58.2598719 C54.2388908,57.6517395 54.7045649,57.07993 55.2841638,57.07993 C55.2878388,57.07993 55.2915138,57.07993 55.2946638,57.07993 C55.8700627,57.07993 56.3388869,57.6346788 56.3446619,58.2384084 C56.3961118,63.8568911 56.5089865,77.0233696 56.4396867,77.6122399 C56.3178869,78.6529442 55.4600385,79.3568368 54.145441,79.4663556 C51.1959965,79.7085079 46.2662558,77.2302997 44.533234,70.9277369 C42.8185873,64.6928667 45.6740569,58.7656399 46.9813044,56.504268 C48.1273773,54.5219216 49.4482748,52.6490941 50.7255974,50.8362542 C51.8139204,49.2914329 52.9389933,47.6959798 53.9259914,46.0702576 C54.0677411,45.7972859 54.5250153,45.0598222 55.3618637,45.0036869 C55.7949879,44.9723172 56.4333867,45.1269645 56.9925106,46.0190754 C57.9879088,47.6618583 59.2893813,49.5456928 60.6680287,51.5395965 C62.2404008,53.8141766 63.8668477,56.1669059 65.0186956,58.1597089 C66.3259431,60.4210808 69.1814127,66.3527103 67.466766,72.5875806 C66.0749936,77.6507641 61.6571269,80.4223067 59.1471066,81.6242624 C58.9817319,81.7035123 58.8105822,81.7772586 58.6394325,81.8515554 C58.2073584,82.038673 57.6697594,82.2714694 57.6188345,82.485554 C57.5054347,82.9726102 57.5043847,85.6577485 57.5684346,87.8651865 C57.5862845,88.4733188 57.1311104,89 56.5515115,89 C56.5404865,89 56.5299865,89 56.5189615,89 Z" id="leaf" fill="#A8CCAA"></path>
                        <polyline id="Path-2" stroke="#FAF5E7" stroke-width="2" stroke-linecap="round" stroke-linejoin="round" points="12 44 12 89 100 89 100 44"></polyline>
                        <polyline id="Line" stroke="#FAF5E7" stroke-width="2" stroke-linecap="round" stroke-linejoin="round" points="0 38 55.5 0 111 38"></polyline>
                        <path d="M28,36 C35.1052379,27.3333333 44.1052379,23 55,23 C65.8947621,23 74.8947621,27.3333333 82,36" id="Line-2" stroke="#FAFAFA" stroke-width="2" stroke-linecap="round" stroke-linejoin="round"></path>
                        <path d="M37,47 C41.7368253,40.3333333 47.7368253,37 55,37 C62.2631747,37 68.2631747,40.3333333 73,47" id="Line-2-Copy" stroke="#FAFAFA" stroke-width="2" stroke-linecap="round" stroke-linejoin="round"></path>
                    </g>
                </g>
            </g>
        </g>
    </g>
</svg>