<?xml version="1.0" encoding="UTF-8"?>
<svg width="42px" height="42px" viewBox="0 0 42 42" version="1.1" xmlns="http://www.w3.org/2000/svg" xmlns:xlink="http://www.w3.org/1999/xlink">
  <g id="more" stroke="none" stroke-width="1" fill="none" fill-rule="evenodd">
    <path d="M21,33 C19.3431458,33 18,31.6568542 18,30 C18,28.3431458 19.3431458,27 21,27 C22.6568542,27 24,28.3431458 24,30 C24,31.6568542 22.6568542,33 21,33 Z M21,24 C19.3431458,24 18,22.6568542 18,21 C18,19.3431458 19.3431458,18 21,18 C22.6568542,18 24,19.3431458 24,21 C24,22.6568542 22.6568542,24 21,24 Z M21,15 C19.3431458,15 18,13.6568542 18,12 C18,10.3431458 19.3431458,9 21,9 C22.6568542,9 24,10.3431458 24,12 C24,13.6568542 22.6568542,15 21,15 Z" fill="#fff"></path>
  </g>
</svg>
