<?xml version="1.0" encoding="UTF-8"?>
<svg width="42px" height="28px" viewBox="0 0 42 34" version="1.1" xmlns="http://www.w3.org/2000/svg" xmlns:xlink="http://www.w3.org/1999/xlink">
  <g id="plug" stroke="none" stroke-width="1" fill="none" fill-rule="evenodd">
    <path d="M23.906394,33.2470674 L24.5522601,29.4784392 C29.6385425,29.4784392 28.9926763,26.4933497 28.9926763,23.7491183 L28.9926763,16.4836081 L26.75017,16.4836081 L26.75017,10.223549 C26.75017,9.54774579 26.1133843,9 25.3280319,9 C24.5431797,9 23.906394,9.54774579 23.906394,10.223549 L23.906394,16.4836081 L18.2205926,16.4836081 L18.2205926,10.223549 C18.2205926,9.54774579 17.5838069,9 16.7987046,9 C16.0136023,9 15.3770666,9.54774579 15.3770666,10.223549 L15.3770666,16.4836081 L13,16.4836081 L13,23.7491183 C13,26.5218625 13,29.4784392 18.2205926,29.4784392 L19.0141758,33.2470674 L23.906394,33.2470674 Z" id="Path" fill="#fff"></path>
  </g>
</svg>
